<svg id="Layer_1" enable-background="new 0 0 510.992 510.992" height="512" viewBox="0 0 510.992 510.992" width="512" xmlns="http://www.w3.org/2000/svg"><path d="m408.721 58.937h-83.894v-17.003c0-23.122-18.812-41.934-41.934-41.934h-54.793c-23.123 0-41.935 18.812-41.935 41.934v17.003h-83.894c-18 0-32.645 14.645-32.645 32.645v29.25c0 18.001 14.645 32.646 32.645 32.646h13.392l13.232 342.134c.333 8.59 7.392 15.382 15.988 15.382h221.226c8.596 0 15.656-6.792 15.988-15.382l13.232-342.134h13.392c18 0 32.645-14.645 32.645-32.646v-29.25c0-18.001-14.645-32.645-32.645-32.645zm-190.556-17.003c0-5.478 4.457-9.934 9.935-9.934h54.793c5.478 0 9.935 4.456 9.935 9.934v17.003h-74.662v-17.003zm132.551 437.058h-190.44l-12.589-325.516h215.617zm58.65-358.161c0 .97 21.811.646-307.095.646-.923 0-.645 1.71-.645-29.896 0-.968-21.811-.645 307.095-.645.924.001.645-1.71.645 29.895z"/><path d="m255.496 408.632c8.836 0 16-7.163 16-16v-151.229c0-8.837-7.164-16-16-16s-16 7.163-16 16v151.229c0 8.837 7.164 16 16 16z"/><path d="m201.591 408.632c9.159 0 16.417-7.639 15.996-16.74l-7-151.229c-.409-8.827-7.919-15.656-16.723-15.242-8.827.408-15.652 7.896-15.243 16.723l7 151.229c.397 8.574 7.474 15.259 15.97 15.259z"/><path d="m308.087 408.614c8.81.41 16.313-6.401 16.723-15.242l7-151.229c.409-8.827-6.416-16.314-15.243-16.723-8.806-.417-16.314 6.416-16.723 15.242l-7 151.229c-.408 8.828 6.416 16.315 15.243 16.723z"/></svg>