<svg id="Layer_1" enable-background="new 0 0 511.084 511.084" height="512" viewBox="0 0 511.084 511.084" width="512" xmlns="http://www.w3.org/2000/svg"><path d="m372.799 31.109h-6.504c-1.469-17.398-16.089-31.109-33.861-31.109h-153.784c-17.771 0-32.391 13.711-33.86 31.109h-6.504c-26.505 0-48.068 21.563-48.068 48.068v383.838c0 26.505 21.563 48.068 48.068 48.068h234.514c26.505 0 48.068-21.563 48.068-48.068v-383.837c-.001-26.505-21.565-48.069-48.069-48.069zm-196.141 2.882c0-1.098.893-1.991 1.991-1.991h153.785c1.098 0 1.991.894 1.991 1.991v36.347c0 1.098-.894 1.991-1.991 1.991h-153.784c-1.098 0-1.991-.894-1.991-1.991v-36.347zm212.209 429.025c0 8.86-7.208 16.068-16.068 16.068h-234.514c-8.86 0-16.068-7.208-16.068-16.068v-383.838c0-8.86 7.208-16.068 16.068-16.068h6.374v7.229c0 18.743 15.249 33.991 33.991 33.991h153.785c18.743 0 33.991-15.248 33.991-33.991v-7.229h6.373c8.86 0 16.068 7.208 16.068 16.068z"/><path d="m327.482 177.569h-143.881c-8.836 0-16 7.163-16 16s7.164 16 16 16h143.881c8.837 0 16-7.163 16-16s-7.163-16-16-16z"/><path d="m327.482 266.23h-143.881c-8.836 0-16 7.163-16 16s7.164 16 16 16h143.881c8.837 0 16-7.163 16-16s-7.163-16-16-16z"/><path d="m327.482 354.893h-143.881c-8.836 0-16 7.163-16 16s7.164 16 16 16h143.881c8.837 0 16-7.163 16-16s-7.163-16-16-16z"/></svg>