<svg id="Layer_1" enable-background="new 0 0 507.105 507.105" height="512" viewBox="0 0 507.105 507.105" width="512" xmlns="http://www.w3.org/2000/svg"><path d="m490.732 0h-312.044c-8.836 0-16 7.163-16 16v126.639h-146.314c-8.836 0-16 7.163-16 16v263.064c0 47.091 38.312 85.402 85.403 85.402h335.553c47.091 0 85.403-38.312 85.403-85.402v-405.703c-.001-8.837-7.165-16-16.001-16zm-458.358 421.703v-247.064h130.314v247.064c0 29.446-23.957 53.402-53.403 53.402h-23.509c-29.446 0-53.402-23.956-53.402-53.402zm442.358 0c0 29.446-23.957 53.402-53.403 53.402h-245.443c11.759-14.635 18.801-33.211 18.801-53.402v-389.703h280.044v389.703z"/><path d="m266.764 177.89h152.915c8.836 0 16-7.163 16-16s-7.164-16-16-16h-152.915c-8.836 0-16 7.163-16 16s7.163 16 16 16z"/><path d="m266.764 270.053h152.915c8.836 0 16-7.163 16-16s-7.164-16-16-16h-152.915c-8.836 0-16 7.163-16 16s7.163 16 16 16z"/><path d="m266.764 362.216h152.915c8.836 0 16-7.163 16-16s-7.164-16-16-16h-152.915c-8.836 0-16 7.163-16 16s7.163 16 16 16z"/></svg>