<svg id="Layer_1" enable-background="new 0 0 513.984 513.984" height="512" viewBox="0 0 513.984 513.984" width="512" xmlns="http://www.w3.org/2000/svg"><path d="m245.455 87.956c-35.941 35.941-10.411 98.008 40.596 98.008 51.022 0 76.519-62.084 40.596-98.008-22.385-22.385-58.807-22.385-81.192 0zm40.596 66.008c-22.584 0-33.868-27.48-17.969-43.381 9.907-9.907 26.029-9.908 35.938 0 15.933 15.935 4.654 43.381-17.969 43.381z"/><path d="m497.984 1.855c-43.903 0-381.614 0-423.865 0-8.837 0-16 7.163-16 16v122.042c-30.155.625-54.854 23.841-57.793 53.382-.461 2.399-.296-14.882-.296 259.519 0 32.716 26.616 59.332 59.332 59.332h302.802c21.89 0 39.698-17.809 39.698-39.698 0-228.217.37-211.401-.832-217.182h96.955c8.837 0 16-7.163 16-16 0-82.151 0-177.57 0-221.395-.001-8.837-7.164-16-16.001-16zm-95.688 221.394h-232.489c-6.783-40.7-38.988-72.905-79.688-79.688v-30.019c40.7-6.783 72.905-38.988 79.688-79.688h232.489c6.783 40.7 38.988 72.905 79.688 79.688v30.019c-40.7 6.783-72.905 38.988-79.688 79.688zm-312.177-47.022c23.02 5.846 41.177 24.003 47.022 47.022h-47.022zm391.865-142.372v47.022c-23.02-5.846-41.177-24.003-47.022-47.022zm-391.865 0h47.022c-5.846 23.02-24.003 41.177-47.022 47.022zm-32 138.042v51.718c-14.018-.63-25.321-11.867-26.051-25.859.73-13.993 12.032-25.228 26.051-25.859zm304.043 308.232h-302.801c-15.071 0-27.332-12.261-27.332-27.332v-203.829c8.185 4.267 17.48 6.679 27.331 6.679h302.803c4.245 0 7.698 3.453 7.698 7.698v46.652h-89.685c-33.758 0-61.222 27.464-61.222 61.222s27.464 61.222 61.222 61.222h89.685v39.99c0 4.245-3.453 7.698-7.699 7.698zm7.699-79.688h-89.685c-16.113 0-29.222-13.108-29.222-29.222s13.108-29.222 29.222-29.222h89.685zm112.123-177.192h-47.022c5.846-23.02 24.003-41.177 47.022-47.022z"/><circle cx="284.752" cy="371.219" r="17.966"/></svg>