<svg id="Layer_1" enable-background="new 0 0 508.536 508.536" height="512" viewBox="0 0 508.536 508.536" width="512" xmlns="http://www.w3.org/2000/svg"><path d="m466.99 233.757c-12.977 0-24.194-8.572-27.911-21.332-3.016-10.352-7.324-20.509-12.828-30.257v-127.622c0-8.836-7.164-16-16-16-42.836 0-80.823 17.633-104.664 53.61-26.408-8.158-54.373-12.287-83.322-12.287-151.852 0-255.46 111.911-212.477 219.759 1.872 5.133 36.526 100.513 49.02 157.772 1.604 7.35 8.11 12.589 15.632 12.589h104.395c8.836 0 16-7.164 16-16v-7.705c0-14.195 11.276-26.656 27.431-26.64 16.226-.017 27.432 12.496 27.432 26.64v7.705c0 8.836 7.164 16 16 16h104.395c6.102 0 11.672-3.47 14.361-8.947 34.019-69.269 32.405-65.974 32.547-66.287 1.23-2.686 7.36-10.005 16.593-15.556 5.34-3.21 15.702-8.136 25.089-5.054 8.207 2.694 17.069-1.611 20.025-9.727l27.291-74.94c9.852-27.052-10.221-55.721-39.009-55.721zm8.941 44.772-22.819 62.662c-26.974-.373-56.129 20.799-65.101 40.016l-27.887 56.783h-79.006c-1.763-12.497-7.5-24.033-16.59-33.109-33.759-33.705-94.253-15.528-101.113 33.109h-76.272c-12.802-52.12-42.407-137.132-47.555-150.025-20.091-50.142 1.431-100.581 46.472-134.201 60.192-44.93 150.064-53.274 221.217-27.283 7.543 2.757 15.96-.508 19.675-7.628 10.141-19.438 29.843-42.168 67.299-47.261 0 124.117-.989 117.733 2.31 123.188 5.179 8.561 9.147 17.509 11.795 26.597 7.613 26.13 31.725 44.38 58.634 44.38 6.577 0 11.21 6.542 8.941 12.772z"/><circle cx="366.901" cy="242.677" r="18.81"/><path d="m249.333 136.353c-35.676-4.461-71.773.035-107.299 13.357-8.274 3.103-12.466 12.325-9.364 20.599 3.104 8.275 12.327 12.466 20.599 9.364 30.629-11.486 61.614-15.377 92.094-11.567 8.775 1.095 16.766-5.124 17.861-13.892 1.097-8.768-5.123-16.765-13.891-17.861z"/></svg>